<mxfile host="drawio-plugin" modified="2023-11-10T09:20:18.596Z" agent="5.0 (Macintosh; Intel Mac OS X 10_15_7) AppleWebKit/537.36 (KHTML, like Gecko) Chrome/111.0.0.0 Safari/537.36" etag="80oUCDJtUbxBnAOqeCZI" version="20.5.3" type="embed"><diagram id="23iRSUPoRavnBvh4doch" name="Page-1"><mxGraphModel dx="976" dy="678" grid="1" gridSize="10" guides="1" tooltips="1" connect="1" arrows="1" fold="1" page="1" pageScale="1" pageWidth="827" pageHeight="1169" math="0" shadow="0"><root><mxCell id="0"/><mxCell id="1" parent="0"/><mxCell id="2" value=":Gestore" style="shape=umlLifeline;perimeter=lifelinePerimeter;whiteSpace=wrap;html=1;container=1;collapsible=0;recursiveResize=0;outlineConnect=0;" vertex="1" parent="1"><mxGeometry x="130" y="110" width="100" height="300" as="geometry"/></mxCell><mxCell id="3" value=":Archivio Aziendale" style="shape=umlLifeline;perimeter=lifelinePerimeter;whiteSpace=wrap;html=1;container=1;collapsible=0;recursiveResize=0;outlineConnect=0;" vertex="1" parent="1"><mxGeometry x="340" y="110" width="100" height="300" as="geometry"/></mxCell><mxCell id="6" value=":Dipendente" style="shape=umlLifeline;perimeter=lifelinePerimeter;whiteSpace=wrap;html=1;container=1;collapsible=0;recursiveResize=0;outlineConnect=0;" vertex="1" parent="1"><mxGeometry x="500" y="220" width="100" height="150" as="geometry"/></mxCell><mxCell id="7" value="query()" style="html=1;verticalAlign=bottom;endArrow=block;rounded=0;" edge="1" parent="1" source="2" target="3"><mxGeometry width="80" relative="1" as="geometry"><mxPoint x="180" y="250" as="sourcePoint"/><mxPoint x="540" y="340" as="targetPoint"/><Array as="points"><mxPoint x="340" y="200"/></Array></mxGeometry></mxCell><mxCell id="8" value="new" style="html=1;verticalAlign=bottom;endArrow=block;rounded=0;" edge="1" parent="1" source="3"><mxGeometry width="80" relative="1" as="geometry"><mxPoint x="460" y="340" as="sourcePoint"/><mxPoint x="500" y="240" as="targetPoint"/><Array as="points"><mxPoint x="460" y="240"/></Array></mxGeometry></mxCell><mxCell id="9" value="calculatePay()" style="html=1;verticalAlign=bottom;endArrow=block;rounded=0;" edge="1" parent="1" source="2" target="6"><mxGeometry width="80" relative="1" as="geometry"><mxPoint x="460" y="340" as="sourcePoint"/><mxPoint x="540" y="340" as="targetPoint"/><Array as="points"><mxPoint x="450" y="320"/></Array></mxGeometry></mxCell><mxCell id="10" value="destroy()" style="html=1;verticalAlign=bottom;endArrow=block;rounded=0;startArrow=none;" edge="1" parent="1" source="11" target="6"><mxGeometry x="-0.1716" y="140" width="80" relative="1" as="geometry"><mxPoint x="460" y="340" as="sourcePoint"/><mxPoint x="540" y="340" as="targetPoint"/><Array as="points"><mxPoint x="500" y="370"/></Array><mxPoint x="-140" y="130" as="offset"/></mxGeometry></mxCell><mxCell id="11" value="" style="shape=umlDestroy;whiteSpace=wrap;html=1;strokeWidth=3;" vertex="1" parent="1"><mxGeometry x="535" y="355" width="30" height="30" as="geometry"/></mxCell><mxCell id="12" value="" style="html=1;verticalAlign=bottom;endArrow=none;rounded=0;" edge="1" parent="1" source="2"><mxGeometry width="80" relative="1" as="geometry"><mxPoint x="179.5" y="370" as="sourcePoint"/><mxPoint x="530" y="370" as="targetPoint"/><Array as="points"/></mxGeometry></mxCell></root></mxGraphModel></diagram></mxfile>